#!OML:ASF F:\VICON\USERDATA\INSTALL\rory3\rory3.ASF
:FULLY-SPECIFIED
:DEGREES
378
root 1.46587 14.8189 -19.9005 -159.153 -11.9615 -179.099
lowerback -4.07925 0.412478 6.73141
upperback -3.97277 0.168094 -0.407174
thorax -1.79767 -0.171937 -4.19107
lowerneck -25.8713 1.54256 -4.9359
upperneck 31.1365 3.53896 -0.208802
head 15.1439 0.467387 1.36241
rclavicle -2.70596e-014 3.57812e-015
rhumerus -51.2698 -56.477 10.1986
rradius 11.0281
rwrist 42.8709
rhand -6.08914 1.6241
rfingers 7.12502
rthumb 19.7467 -27.3929
lclavicle -2.70596e-014 3.57812e-015
lhumerus -34.4855 -3.83974 48.498
lradius 14.415
lwrist -55.8131
lhand -3.95097 26.4575
lfingers 7.12502
lthumb 21.801 55.2496
rfemur -47.2221 2.54381 26.9206
rtibia 68.1282
rfoot -40.1128 -23.7602
rtoes 9.3578
lfemur -42.9189 11.2032 -12.7798
ltibia 81.9366
lfoot -33.377 27.6077
ltoes 10.7525
379
root 1.45023 14.8288 -20.0605 -159.616 -11.3925 -180.071
lowerback -3.16725 0.617843 5.36464
upperback -3.70501 0.564017 -0.834322
thorax -1.98277 0.0729899 -3.86028
lowerneck -25.9757 1.34334 -4.86326
upperneck 31.2126 3.20782 -0.153405
head 15.2121 0.346746 1.31057
rclavicle 3.09359e-014 -3.77691e-015
rhumerus -54.8477 -60.0066 15.0497
rradius 10.7643
rwrist 49.1156
rhand -6.20279 1.47136
rfingers 7.12502
rthumb 19.6374 -27.5568
lclavicle 3.09359e-014 -3.77691e-015
lhumerus -36.8037 -3.95895 49.1054
lradius 13.9507
lwrist -56.8048
lhand -3.89275 26.1559
lfingers 7.12502
lthumb 21.8569 54.9415
rfemur -45.6165 1.92983 25.9094
rtibia 67.8814
rfoot -40.5505 -23.4935
rtoes 8.65383
lfemur -44.5558 10.503 -15.1732
ltibia 82.8011
lfoot -33.5276 28.1093
ltoes 9.17742
380
root 1.45266 14.798 -20.1563 -160.024 -11.1177 -179.475
lowerback -1.67506 0.850399 5.31101
upperback -3.87236 0.977026 -0.857105
thorax -2.95199 0.254265 -3.86887
lowerneck -25.7119 1.31538 -4.41887
upperneck 31.1827 2.96639 -0.2169
head 15.1557 0.293633 1.15771
rclavicle 2.45251e-014 8.94531e-015
rhumerus -62.1546 -64.1199 23.7707
rradius 10.4684
rwrist 56.9205
rhand -6.73776 1.71756
rfingers 7.12502
rthumb 19.123 -27.3623
lclavicle 2.45251e-014 8.94531e-015
lhumerus -39.6757 -4.34771 49.4564
lradius 13.7201
lwrist -56.753
lhand -3.56449 26.2485
lfingers 7.12502
lthumb 22.1721 54.997
rfemur -44.5844 3.06936 26.5611
rtibia 67.446
rfoot -40.9363 -24.3599
rtoes 8.96322
lfemur -47.5318 10.2934 -15.6867
ltibia 84.1551
lfoot -33.3211 28.0131
ltoes 8.31057
381
root 1.43082 14.7971 -20.3114 -160.164 -11.4195 -178.713
lowerback -1.3109 0.981927 5.9597
upperback -3.946 1.1783 -0.976041
thorax -3.20331 0.32444 -4.3666
lowerneck -25.0974 1.38708 -3.59351
upperneck 30.78 2.77438 -0.4787
head 14.8603 0.298677 0.86466
rclavicle -6.9761e-015 7.64079e-016
rhumerus -75.4743 -67.8961 38.5206
rradius 10.2275
rwrist 65.8194
rhand -7.2158 2.02833
rfingers 7.12502
rthumb 18.6633 -27.0964
lclavicle -6.9761e-015 7.64079e-016
lhumerus -42.6973 -5.06225 49.6434
lradius 13.5814
lwrist -55.6782
lhand -4.1916 26.5239
lfingers 7.12502
lthumb 21.57 55.3427
rfemur -43.3954 3.47534 27.4483
rtibia 66.7572
rfoot -41.5097 -25.2975
rtoes 8.0834
lfemur -50.2188 9.44971 -15.943
ltibia 84.9829
lfoot -34.244 27.0437
ltoes 9.40357
382
root 1.41037 14.8049 -20.4544 -160.129 -11.5274 -178.606
lowerback -0.719371 1.13212 5.92869
upperback -4.05726 1.41507 -1.27953
thorax -3.62003 0.423361 -4.68269
lowerneck -25.2652 1.38217 -3.30604
upperneck 30.9162 2.59824 -0.301562
head 14.9613 0.286021 0.858328
rclavicle -1.04983e-014 1.46107e-014
rhumerus -85.7205 -69.5979 49.684
rradius 10.2126
rwrist 71.4986
rhand -7.9194 2.88195
rfingers 7.12502
rthumb 17.9864 -26.3064
lclavicle -1.04983e-014 1.46107e-014
lhumerus -45.5269 -5.76898 49.7979
lradius 13.3954
lwrist -54.5499
lhand -4.83922 26.9302
lfingers 7.12502
lthumb 20.9479 55.819
rfemur -42.4144 3.90579 27.5537
rtibia 65.9874
rfoot -42.0567 -25.96
rtoes 7.2104
lfemur -52.9033 8.3689 -16.9026
ltibia 85.4909
lfoot -35.0497 26.2623
ltoes 10.0877
383
root 1.39839 14.8088 -20.5972 -159.976 -11.5523 -178.294
lowerback -0.350374 1.37731 5.76143
upperback -4.08983 1.76665 -1.34956
thorax -3.82093 0.597721 -4.67823
lowerneck -25.7596 1.31789 -3.27362
upperneck 31.0854 2.50149 -0.194889
head 15.1469 0.267183 0.885739
rclavicle -1.67973e-014 -1.09332e-014
rhumerus -113.17 -69.4632 79.3593
rradius 10.3645
rwrist 83.0828
rhand -9.17367 6.82364
rfingers 7.12502
rthumb 16.7793 -22.4713
lclavicle -1.67973e-014 -1.09332e-014
lhumerus -47.7862 -4.34685 48.4246
lradius 12.7547
lwrist -56.1061
lhand -5.11205 26.8148
lfingers 7.12502
lthumb 20.6858 55.7324
rfemur -41.4196 4.9953 27.853
rtibia 64.9056
rfoot -42.658 -26.5935
rtoes 7.79409
lfemur -55.902 7.46638 -17.5471
ltibia 85.7679
lfoot -34.8596 26.1247
ltoes 7.59686
384
root 1.36452 14.8301 -20.7563 -159.678 -12.01 -177.681
lowerback -1.24315 1.55137 6.17239
upperback -3.53532 1.96184 -1.18276
thorax -2.70883 0.747735 -4.70301
lowerneck -26.416 1.1358 -3.29694
upperneck 30.6972 2.44741 -0.436021
head 15.1196 0.243577 0.789321
rclavicle -8.00108e-015 -2.08724e-015
rhumerus -123.669 -69.8521 90.8099
rradius 10.7144
rwrist 86.5678
rhand -8.24313 3.76359
rfingers 7.12502
rthumb 17.6749 -25.4531
lclavicle -8.00108e-015 -2.08724e-015
lhumerus -49.4227 -1.9188 47
lradius 12.3234
lwrist -57.2923
lhand -4.23216 26.8681
lfingers 7.12502
lthumb 21.531 55.6913
rfemur -40.3103 5.63281 28.5171
rtibia 63.5417
rfoot -43.3517 -26.8524
rtoes 8.77206
lfemur -58.9133 6.25597 -17.7248
ltibia 85.6465
lfoot -34.462 25.8483
ltoes 5.1818
385
root 1.30532 14.8909 -20.9465 -159.25 -12.7649 -177.109
lowerback -1.62462 1.88656 7.36906
upperback -3.82669 2.36763 -1.46385
thorax -2.69821 0.896611 -5.66607
lowerneck -26.0155 0.882293 -3.03153
upperneck 30.7404 1.96551 -0.581175
head 15.0671 0.0465875 0.58262
rclavicle -1.20265e-014 9.93923e-015
rhumerus -122.169 -70.3633 89.919
rradius 10.9825
rwrist 87.0888
rhand -8.26992 4.90671
rfingers 7.12502
rthumb 17.6491 -24.3123
lclavicle -1.20265e-014 9.93923e-015
lhumerus -51.7065 -2.54524 46.5344
lradius 12.0718
lwrist -57.2032
lhand -3.70123 27.2707
lfingers 7.12502
lthumb 22.0408 56.0348
rfemur -39.0134 5.38513 29.1402
rtibia 61.827
rfoot -43.731 -26.8053
rtoes 9.142
lfemur -61.5733 4.57126 -17.835
ltibia 84.9291
lfoot -33.7597 25.6547
ltoes 3.28484
386
root 1.2818 14.954 -21.1307 -158.818 -12.574 -177.003
lowerback -1.20854 2.42432 7.22597
upperback -4.53957 3.09006 -1.87321
thorax -3.55497 1.18001 -6.04908
lowerneck -25.7508 0.622861 -3.48503
upperneck 31.4448 1.48124 0.0029492
head 15.3289 -0.166745 0.800653
rclavicle 7.20594e-015 -7.7526e-015
rhumerus -125.094 -69.3454 93.9881
rradius 11.2449
rwrist 90.834
rhand -8.90747 4.45956
rfingers 7.12502
rthumb 17.0355 -24.8135
lclavicle 7.20594e-015 -7.7526e-015
lhumerus -54.2747 -3.32611 45.4143
lradius 11.722
lwrist -58.0681
lhand -3.51049 27.6649
lfingers 7.12502
lthumb 22.224 56.4072
rfemur -37.7666 6.3253 29.1702
rtibia 59.9958
rfoot -43.8235 -27.2001
rtoes 9.64588
lfemur -63.8903 3.76459 -18.406
ltibia 83.7217
lfoot -32.6869 24.7713
ltoes 1.83404
387
root 1.25558 15.0388 -21.3325 -158.392 -11.9649 -177.37
lowerback -1.49957 2.99634 6.22611
upperback -4.76994 3.79985 -2.2565
thorax -3.54908 1.54803 -5.87721
lowerneck -26.3608 0.45602 -4.1474
upperneck 32.4846 1.26674 0.633101
head 15.9503 -0.294291 1.14111
rclavicle -1.92324e-014 -2.16675e-014
rhumerus -132.369 -67.7431 102.692
rradius 11.6301
rwrist 95.7602
rhand -9.23833 4.35118
rfingers 7.12502
rthumb 16.717 -24.949
lclavicle -1.92324e-014 -2.16675e-014
lhumerus -56.4127 -2.69991 43.2503
lradius 11.3221
lwrist -60.2266
lhand -3.59716 27.8594
lfingers 7.12502
lthumb 22.1408 56.6116
rfemur -36.199 7.07529 28.6103
rtibia 58.0312
rfoot -43.7119 -26.9546
rtoes 10.5035
lfemur -65.541 3.15715 -19.5231
ltibia 81.8998
lfoot -31.6714 23.2136
ltoes -0.127313
388
root 1.18829 15.1184 -21.5257 -158.276 -12.1984 -176.685
lowerback -2.86411 3.38465 7.0059
upperback -4.11268 4.24429 -2.25783
thorax -1.98101 1.84442 -6.2028
lowerneck -27.0804 0.256496 -4.05446
upperneck 32.496 1.1477 0.301871
head 16.1297 -0.365296 0.96537
rclavicle 8.10048e-015 -4.29375e-014
rhumerus -147.132 -63.0517 119.115
rradius 12.2582
rwrist 103.914
rhand -9.75838 4.76293
rfingers 7.12502
rthumb 16.2163 -24.5788
lclavicle 8.10048e-015 -4.29375e-014
lhumerus -57.7218 0.305317 39.3386
lradius 10.7527
lwrist -64.5081
lhand -3.94094 27.7831
lfingers 7.12502
lthumb 21.8107 56.574
rfemur -34.343 6.64739 29.2853
rtibia 55.8503
rfoot -43.1113 -27.4583
rtoes 7.65972
lfemur -67.1193 2.21729 -19.3805
ltibia 79.979
lfoot -30.4123 21.5624
ltoes -2.88102
